<?xml version="1.0" standalone="no"?>
<!DOCTYPE svg PUBLIC "-//W3C//DTD SVG 20010904//EN"
 "http://www.w3.org/TR/2001/REC-SVG-20010904/DTD/svg10.dtd">
<svg version="1.0" xmlns="http://www.w3.org/2000/svg"
 width="100.000000pt" height="100.000000pt" viewBox="0 0 100.000000 100.000000"
 preserveAspectRatio="xMidYMid meet">

<g transform="translate(0.000000,100.000000) scale(0.100000,-0.100000)"
fill="#000000" stroke="none">
<path d="M403 955 c-85 -19 -157 -59 -223 -125 -60 -60 -117 -154 -100 -165
15 -9 12 -25 -3 -19 -17 6 -19 -28 -3 -38 7 -5 3 -8 -9 -9 l-20 0 20 -9 c19
-8 19 -9 1 -9 -20 -1 -20 -1 0 -16 19 -14 19 -14 -1 -15 -17 0 -17 -2 -5 -10
12 -8 12 -10 -5 -11 l-20 0 20 -8 20 -8 -20 -5 c-16 -5 -17 -6 -2 -7 9 0 17
-5 17 -11 0 -5 -8 -10 -17 -11 -15 0 -15 -2 2 -9 14 -6 15 -9 5 -10 -10 -1 -9
-4 5 -10 17 -7 17 -9 3 -9 -10 -1 -18 -5 -18 -11 0 -5 6 -7 13 -4 17 6 19 -28
3 -38 -7 -5 -3 -8 9 -8 17 0 17 -2 5 -10 -12 -8 -12 -10 5 -11 11 0 14 -3 8
-6 -7 -2 -13 -9 -13 -14 0 -6 5 -7 10 -4 7 4 9 -2 5 -17 -12 -48 98 -174 197
-224 66 -34 173 -57 198 -44 10 5 50 10 88 10 89 0 173 40 253 119 72 73 127
182 109 217 -16 28 -7 92 14 108 13 9 14 21 6 73 -6 34 -19 83 -30 109 -46
105 -153 214 -212 214 -18 0 -38 9 -51 24 -15 16 -42 28 -82 35 -73 14 -104
13 -182 -4z m15 -451 c26 -8 0 -24 -38 -24 -49 0 -70 8 -70 27 0 11 10 13 48
8 26 -4 53 -8 60 -11z m282 1 c0 -18 -35 -28 -81 -23 -42 4 -41 21 3 29 59 11
78 10 78 -6z"/>
</g>
</svg>
